<?xml version="1.0" encoding="utf-8"?>
<!-- Generator: Adobe Illustrator 24.0.1, SVG Export Plug-In . SVG Version: 6.00 Build 0)  -->
<svg version="1.1" id="Layer_1" xmlns="http://www.w3.org/2000/svg" xmlns:xlink="http://www.w3.org/1999/xlink" x="0px" y="0px"
	 viewBox="0 0 1024 1024" style="enable-background:new 0 0 1024 1024;" xml:space="preserve">
<style type="text/css">
	.st0{fill:#9427F7;}
</style>
<g>
	<path class="st0" d="M672.3,480.6c-9.2-3.8-19.4-5.2-30.2-3.6c-39.9,6-59.9,38.4-65,76.6c-0.7,5.5-1.2,11.1-1.4,16.6
		c-5.2,116.5,59.7,204.3,110.3,232.6c0,0-38.7-46-24.1-120.2c8.6-43.4,41.3-76.9,51.8-119.4C721.9,530.6,702.7,493,672.3,480.6z"/>
	<path class="st0" d="M364.5,475c-10.4-3.4-20.7-3.6-30.3-1.3c-32,7.3-57.1,41.3-54.4,74.7c3.5,43.6,30.4,82.1,31.8,126.3
		c2.5,75.6-43.2,114.7-43.2,114.7c54.5-19.7,132.8-95.9,146.5-211.7c0.7-5.5,1.1-11.1,1.3-16.6C417.3,522.6,402.9,487.4,364.5,475z"
		/>
	<path class="st0" d="M737.2,423.2c-6.6-6-15.2-9.3-23.6-12.2c-129-45.3-272.2-48.8-403.4-10.2c-7.4,2.2-14.9,4.6-21.5,8.4
		c-2.9,1.7-5.7,3.7-8.1,6.1c-8,7.7-11.9,20.7-6.1,30.2c5.2,8.4,16.3,11.4,26.1,10.5c9.8-0.9,19.1-4.8,28.8-7
		c36.2-8.4,76.9,9.8,94.9,42.3c18.1,32.8,13.1,72.9,14.8,110.3c3.5,77.1,37.5,150.7,38.6,227.8c0.5,33.8-5.6,67.7-17.6,99.3
		c-6.2,16.4-13.9,32.2-23.1,47.1c-8.6,14-21.3,26.1-29.3,40c20.8-2.3,45.7-20.2,62.7-32c19.1-13.3,36.5-29.1,51.5-47
		c30-35.6,50.2-79.7,53.5-126.4c3.4-48.7-10.4-96.8-20.8-144.5c-10.3-47.8-17-98.8,0.1-144.5c7.8-20.8,20.6-40.1,38.6-53.1
		c26.8-19.4,62.6-23.1,93.5-12.8c17.3,5.8,51.7,17.3,59-8.4C748.1,438.5,743.9,429.1,737.2,423.2z"/>
	<path class="st0" d="M794.8,317.7c0.1-1.3,0.1-2.6,0.1-4.1c0.9-90.2-31.8-176.3-101.6-235C649,41.2,593,16.5,535.2,9.8
		C406.3-5,300.2,79.5,255,196.3c-23.2,59.9-31.4,126.2-22.3,189.8c0,0,312-115.4,551.1,24.8C790.9,377.3,794.4,346.2,794.8,317.7z
		 M558.8,237.9c-15.1-2.5-28.9-4.3-37.6-5c-25.2-2.4-77.4-3.3-152.8,23.5c0,0,0-0.1,0.1-0.5c18.2-103.9,156.1-147.5,235.1-80.1
		c38.6,32.3,47,75.1,48.8,86.9C630.6,254.8,598.6,244.8,558.8,237.9z"/>
</g>
</svg>
